<?xml version="1.0" encoding="UTF-8"?>
<!-- (c) Carrd Inc. All rights reserved. All logos and trademarks are property of their respective owners. -->
<svg xmlns="http://www.w3.org/2000/svg" version="1.1" xmlns:xlink="http://www.w3.org/1999/xlink" viewBox="0 0 40 40" display="none" width="0" height="0">
		<symbol id="email-alt" viewBox="0 0 40 40"><path d="M34.9,30.5V15.6c-0.4,0.4-0.8,0.9-1.4,1.2c-3.4,2.7-6.2,4.8-8.2,6.6c-0.6,0.5-1.1,0.9-1.6,1.2c-0.4,0.3-0.9,0.6-1.7,0.9 c-0.7,0.3-1.4,0.5-2,0.5l0,0c-0.6,0-1.2-0.2-2-0.5c-0.7-0.3-1.2-0.6-1.7-0.9c-0.4-0.3-0.9-0.7-1.6-1.2c-2.1-1.7-4.8-3.8-8.2-6.6 c-0.5-0.4-0.9-0.8-1.4-1.2v14.9c0,0.2,0.1,0.3,0.2,0.4C5.7,31,5.9,31.1,6,31.1h28.4c0.2,0,0.3-0.1,0.4-0.2 C34.8,30.8,34.9,30.7,34.9,30.5L34.9,30.5z M34.9,10.2V9.7c0,0,0-0.1,0-0.2c0-0.1,0-0.2-0.1-0.2c-0.1,0-0.1,0-0.1-0.2 c0-0.1-0.1-0.2-0.2-0.1c-0.1,0-0.2,0-0.3,0H5.8C5.6,8.9,5.4,9,5.3,9.1C5.2,9.2,5.1,9.3,5.1,9.5c0,2.2,0.9,4,2.8,5.5 c2.5,2,5.1,4,7.7,6.1c0.1,0.1,0.3,0.2,0.7,0.5c0.4,0.3,0.6,0.5,0.9,0.7c0.2,0.2,0.5,0.4,0.8,0.6c0.3,0.2,0.7,0.4,0.9,0.5 c0.3,0.1,0.6,0.2,0.8,0.2l0,0c0.2,0,0.5-0.1,0.8-0.2c0.3-0.1,0.6-0.3,0.9-0.5c0.3-0.2,0.6-0.4,0.8-0.6c0.2-0.2,0.5-0.4,0.9-0.7 c0.4-0.3,0.6-0.5,0.6-0.5c2.7-2.1,5.3-4.2,7.7-6.1c0.7-0.5,1.4-1.2,2-2.2C34.6,11.8,34.9,11,34.9,10.2L34.9,10.2z M37.3,9.5v21 c0,0.8-0.3,1.6-0.9,2.2s-1.4,0.9-2.2,0.9H5.8c-0.8,0-1.6-0.3-2.2-0.9c-0.6-0.6-0.9-1.4-0.9-2.2v-21c0-0.8,0.3-1.6,0.9-2.2 s1.4-0.9,2.2-0.9h28.4c0.8,0,1.6,0.3,2.2,0.9S37.3,8.7,37.3,9.5z"/></symbol>
		<symbol id="gamepad" viewBox="0 0 40 40"><path d="M36.3,32.1c-2.6,0.7-5.5-0.9-6.8-3.5l-2.9-6.2H20h-6.6l-2.9,6.2c-1.2,2.6-4.1,4.2-6.8,3.5 c-2.6-0.7-4.2-3.4-3.5-6L2,19.3C2,19.2,2,19.1,2.1,19l1.5-5.8c0.8-3,3.9-5.4,6.9-5.4H20h9.5c3,0,6.1,2.4,6.9,5.4l1.5,5.8 c0,0.1,0.1,0.2,0.1,0.3l1.8,6.8C40.5,28.7,39,31.4,36.3,32.1z M16.2,15c0-0.5-0.4-0.9-0.9-0.9h-2.5v-2.5c0-0.5-0.4-0.9-0.9-0.9H11 c-0.5,0-0.9,0.4-0.9,0.9v2.5H7.5c-0.5,0-0.9,0.4-0.9,0.9v0.8c0,0.5,0.4,0.9,0.9,0.9h2.6v2.6c0,0.5,0.4,0.9,0.9,0.9h0.8 c0.5,0,0.9-0.4,0.9-0.9v-2.6h2.5c0.5,0,0.9-0.4,0.9-0.9V15z M25.4,13.8c-0.9,0-1.7,0.7-1.7,1.7s0.7,1.7,1.7,1.7 c0.9,0,1.7-0.7,1.7-1.7S26.3,13.8,25.4,13.8z M28.7,10.5c-0.9,0-1.7,0.7-1.7,1.7c0,0.9,0.7,1.7,1.7,1.7c0.9,0,1.7-0.7,1.7-1.7 C30.3,11.2,29.6,10.5,28.7,10.5z M28.7,17c-0.9,0-1.7,0.7-1.7,1.7c0,0.9,0.7,1.7,1.7,1.7c0.9,0,1.7-0.7,1.7-1.7 C30.3,17.8,29.6,17,28.7,17z M31.9,13.8c-0.9,0-1.7,0.7-1.7,1.7s0.7,1.7,1.7,1.7c0.9,0,1.7-0.7,1.7-1.7S32.9,13.8,31.9,13.8z"/></symbol>
		<symbol id="message" viewBox="0 0 40 40"><path d="M35.7,13c-1.6-2-3.8-3.5-6.5-4.7c-2.8-1.1-5.8-1.7-9-1.7c-2.4,0-4.8,0.3-7,1C10.9,8.2,9,9.2,7.4,10.3 c-1.6,1.2-2.9,2.5-3.8,4.1c-1,1.6-1.4,3.3-1.4,5c0,2,0.6,3.9,1.8,5.7c1.2,1.8,2.9,3.2,5,4.4c-0.1,0.5-0.3,1-0.5,1.5 c-0.2,0.5-0.4,0.9-0.5,1.2c-0.2,0.3-0.4,0.7-0.7,1c-0.3,0.4-0.5,0.6-0.6,0.8c-0.1,0.2-0.4,0.4-0.7,0.8c-0.3,0.4-0.5,0.6-0.6,0.7 c0,0-0.1,0.1-0.2,0.2C5,35.8,5,35.8,5,35.8L4.8,36c-0.1,0.1-0.1,0.2-0.1,0.2c0,0,0,0.1,0,0.2c0,0.1,0,0.2,0,0.2v0 c0.1,0.2,0.2,0.4,0.4,0.6c0.2,0.1,0.4,0.2,0.6,0.2C6.6,37.3,7.3,37.2,8,37c3.5-0.9,6.6-2.5,9.2-4.9c1,0.1,2,0.2,2.9,0.2 c3.3,0,6.3-0.6,9-1.7c2.8-1.1,4.9-2.7,6.5-4.7c1.6-2,2.4-4.1,2.4-6.5C38.1,17.1,37.3,14.9,35.7,13z" /></symbol>
		<symbol id="star" viewBox="0 0 40 40"><path d="M37.7,14l-11.4-1.7L21.1,2c-0.3-0.6-0.7-0.9-1.1-0.9S19.2,1.4,18.9,2l-5.1,10.4L2.3,14c-0.8,0.1-1.3,0.5-1.3,1 c0,0.3,0.2,0.7,0.6,1.1l8.3,8.1L8,35.6c0,0.2,0,0.4,0,0.5c0,0.3,0.1,0.6,0.2,0.8c0.2,0.2,0.4,0.3,0.7,0.3c0.3,0,0.6-0.1,0.9-0.3 L20,31.5l10.2,5.4c0.3,0.2,0.6,0.3,0.9,0.3c0.3,0,0.5-0.1,0.7-0.3c0.2-0.2,0.2-0.5,0.2-0.8c0-0.2,0-0.3,0-0.5l-2-11.4l8.3-8.1 c0.4-0.4,0.6-0.8,0.6-1.1C38.9,14.5,38.5,14.2,37.7,14z"/></symbol>
		<symbol id="pixelfed" viewBox="0 0 40 40"><path d="M36,21c0,1.2-0.2,2.3-0.5,3.4c-0.8,3-2.4,5.6-4.7,7.6c-2.6,2.3-5.7,3.6-9.3,3.9c-0.2,0-0.4,0-0.6,0 c-0.4,0-0.9,0-1.3,0c0,0-0.1,0-0.1,0c-1,0-2-0.2-3-0.4c-4.3-1.1-7.6-3.5-10-7.2C5,26.1,4.3,23.6,4,21c0-0.2,0-0.4,0-0.6 c0-0.4,0-0.9,0-1.3c0,0,0-0.1,0-0.1c0.1-1.1,0.2-2.2,0.5-3.3c0.9-3.3,2.7-6.1,5.4-8.3c2.5-2,5.4-3.1,8.6-3.4c0.2,0,0.4,0,0.5,0 c0.5,0,0.9,0,1.4,0c0,0,0.1,0,0.1,0c0.7,0.1,1.4,0.1,2.1,0.2c0.4,0.1,0.9,0.2,1.3,0.3c0.4,0.1,0.8,0.2,1.2,0.5 c0.6,0.4,1.3,0.8,1.8,1.3c0.4,0.3,0.7,0.7,1,1.1c0.5,0.7,0.8,1.4,1,2.1c0.2,0.7,0.3,1.4,0.3,2.1c0,0.4-0.1,0.9-0.2,1.3 c-0.2,0.8-0.5,1.5-0.9,2.2c-0.4,0.6-0.8,1.1-1.3,1.6c-0.2,0.1-0.3,0.3-0.5,0.4c-0.9-2.3-2.6-3.4-5-3.4c-0.5-2.1-1.5-3.8-3.2-5 c-1.8-1.2-3.7-1.7-5.8-1.4c-1.6,0.2-3,1-4.3,2.1C7.9,9.5,7.8,9.7,7.6,9.9c0,0,0,0,0,0C8,9.6,8.4,9.3,8.8,9c0.4-0.3,0.9-0.5,1.4-0.7 c0.5-0.2,1-0.3,1.5-0.4c0.5-0.1,1-0.1,1.5,0c0.5,0,1,0.1,1.5,0.3c0.5,0.1,1,0.3,1.4,0.6c0.4,0.3,0.9,0.5,1.2,0.9 c0.4,0.4,0.7,0.7,1,1.2c0.3,0.4,0.5,0.9,0.7,1.3c0.2,0.5,0.3,1,0.4,1.5c-0.1,0-0.1,0-0.2,0c-0.5,0-1.1,0-1.6,0c-0.3,0-0.5,0-0.8,0.1 c-0.7,0.1-1.3,0.4-1.8,1c-0.3,0.4-0.6,0.9-0.6,1.4c0,0.2,0,0.3,0,0.5c-1.9-0.2-3.6,0.1-5.2,1.1c-1.6,1-2.7,2.4-3.3,4.1 c-0.8,2.2-0.6,4.4,0.6,6.5c0,0,0-0.1,0-0.1c-0.6-1.5-0.8-3-0.4-4.5c0.3-1.2,0.8-2.2,1.7-3.2c0.4-0.4,0.8-0.7,1.2-1 c1-0.7,2.2-1.2,3.5-1.2c0.6,0,1.3,0,1.9,0.1c0.1,0,0.1,0.1,0.1,0.2c0,2.6,0,5.2,0,7.8c0,0.6,0,1.2,0.1,1.8c0.1,0.5,0.2,1,0.3,1.5 c0.2,0.7,0.5,1.3,0.8,1.9c0.5,0.8,1,1.5,1.7,2.1c0.6,0.5,1.4,1,2.1,1.3c0.9,0.4,1.9,0.6,2.9,0.6c0.3,0,0.6,0,0.9,0 c0.4-0.1,0.8-0.1,1.2-0.2c0,0,0,0,0.1,0c-0.1,0-0.1,0-0.2,0c-0.3,0-0.5,0.1-0.8,0.1c-0.4,0-0.9,0-1.3-0.1c-0.7-0.1-1.4-0.3-2.1-0.6 c-1.1-0.5-1.9-1.2-2.7-2.1c-0.6-0.7-1-1.5-1.2-2.4c-0.1-0.4-0.2-0.9-0.2-1.3c0-0.3,0-0.6,0-0.9c0-0.3,0-0.6,0.1-0.8 c0.1-0.6,0.3-1.2,0.6-1.8c0.1-0.1,0.1-0.2,0.2-0.3c0.5-0.5,1-1,1.5-1.5c0.1-0.1,0.1-0.1,0.2-0.1c0.6,0,1.2,0,1.8,0 c0.1,0,0.2,0,0.2,0.1c0.3,0.7,0.7,1.3,1.2,1.8c0.3,0.4,0.7,0.7,1.1,1c0.7,0.6,1.5,1,2.4,1.3c0.9,0.3,1.9,0.5,2.8,0.4 c0.4,0,0.8,0,1.1-0.1c0.8-0.1,1.7-0.4,2.4-0.9c0.6-0.3,1.2-0.8,1.6-1.2c0.2-0.2,0.5-0.5,0.7-0.8c0.3-0.4,0.6-0.9,0.9-1.3 c0.3-0.5,0.5-1,0.6-1.5C35.8,21.8,35.9,21.3,36,21c0-0.2,0-0.3,0-0.5c0,0.1,0,0.2,0,0.3C36,20.9,36,20.9,36,21z M35.9,20.1 c-0.1,0.8-0.3,1.6-0.6,2.4c-0.3,0.6-0.6,1.2-1.1,1.7c-0.4,0.4-0.8,0.8-1.3,1.2c-0.6,0.4-1.2,0.7-1.8,0.9c-0.5,0.2-1,0.3-1.5,0.3 c-0.3,0-0.5,0-0.8,0c-0.6,0-1.2-0.1-1.8-0.3c-0.7-0.2-1.4-0.5-2-0.9c-0.5-0.3-0.9-0.7-1.3-1.1c-0.3-0.3-0.5-0.7-0.8-1.1 c0,0,0-0.1,0-0.1c0.2-0.1,0.4-0.1,0.5-0.2c1.7-0.7,2.7-1.8,3.1-3.6c0-0.2,0.1-0.3,0.3-0.4c0.6-0.4,1.2-0.8,1.6-1.4 c0.9-1,1.5-2.1,1.8-3.4c0.1-0.4,0.1-0.8,0.2-1.2c0-0.4,0.1-0.8,0-1.2c-0.1-0.9-0.3-1.8-0.7-2.7c-0.3-0.7-0.7-1.4-1.2-2 c-0.7-0.9-1.6-1.6-2.7-2.1c0,0,0,0,0-0.1c0,0,0.1,0,0.1,0c2.2,0.9,4.1,2.3,5.8,4c2,2.2,3.3,4.7,3.9,7.6c0.2,0.8,0.3,1.7,0.3,2.5 c0,0,0,0.1,0,0.1C36,19.7,36,19.9,35.9,20.1C36,20.1,35.9,20.1,35.9,20.1z"/></symbol>
		<symbol id="target" viewBox="0 0 40 40"><path d="M2,20c0-9.9,8.1-18,18-18c9.9,0,18,8.1,18,18c0,9.9-8.1,18-18,18C10.1,38,2,29.9,2,20z M20,32c6.6,0,12-5.4,12-12 c0-6.6-5.4-12-12-12C13.4,8,8,13.4,8,20C8,26.6,13.4,32,20,32z M26,20c0,3.3-2.7,6-6,6s-6-2.7-6-6s2.7-6,6-6S26,16.7,26,20L26,20z"/></symbol>
		<symbol id="thriftbooks" viewBox="0 0 40 40"><path d="M35.05,37.35l-4.64,0.57l-2.2-19.31l2.36-0.25l-0.24-1.8l-2.36,0.25l-0.49-3.93l5.21-0.65l2.77,24.46 C35.46,37.02,35.22,37.35,35.05,37.35z M15.51,33.09l9.69,0.33v4.5h-9.69V33.09z M15.51,30.8h9.69v1.31l-9.69-0.08V30.8z M15.51,28.43h9.69v1.31l-9.69-0.16V28.43z M15.58,6.42l-1.62,9.74L7.2,14.76L8.91,4.62c0-0.08,0.08-0.08,0.08-0.08L15.1,5.6 c0.22,0.06,0.41,0.23,0.48,0.44l0.01-3.79L25.2,2v25.36h-9.69L15.58,6.42z M10.38,37.43C10.3,37.75,10.05,38,9.73,38l-6.11-1.15 c-0.08,0-0.08-0.08-0.08-0.08l3.5-20.62l6.76,1.15L10.38,37.43z"/></symbol>
		<symbol id="ubisoft" viewBox="0 0 40 40"><path d="M33.4,26.4c-2.5,5.7-7.7,8.7-13.3,8.7C9.5,34.6,6.4,22.3,13.5,17.8l0.3,0.3c-0.1,0.2-0.5,0.5-1.2,1.8 c-0.8,1.6-1,3.2-0.9,4.1c0.6,8.6,12.6,10.3,16.7,1.8c5.3-11.7-8.7-23.5-21.1-14.4L7,11.2c3.3-5.1,9.6-7.4,15.7-5.9 C32.1,7.7,37.1,17.4,33.4,26.4z M23.5,26.3c-0.9,1.2-2.3,2.1-3.9,2.1c-2.6,0-4.8-2.1-4.8-4.8c0-2.5,2-4.6,4.4-4.8v0 c1.5-0.1,3,0.8,3.7,2.1c0.7,1.5,0.5,3.3-0.7,4.5C22.6,25.7,23,26,23.5,26.3L23.5,26.3z M6.8,23.1c-0.2,1.9-0.1,2.5-0.1,2.7L6.3,26 c-0.2-0.3-0.6-1.4-0.7-2.9C5.1,17.4,9,12.4,14.8,11.4c5.4-0.8,10.5,2.5,11.7,7.2l-0.4,0.2c-0.1-0.1-0.3-0.5-1.2-1.3 C18.4,10.9,8.3,13.9,6.8,23.1z M37.5,20C37.1,1.3,12.4-5.6,2.8,11.9c0.4,0.3,1,0.7,1.4,1C3.5,14.4,3,16,2.8,17.5 c-0.2,1-0.3,2.1-0.3,3.1c0,9.7,7.8,17.5,17.5,17.5c9.7,0,17.5-7.8,17.5-17.5C37.5,20.4,37.5,20.2,37.5,20"/></symbol>
		<symbol id="vlive" viewBox="0 0 40 40"><path d="M10.6,3c0.4,0,0.8,0,1.3,0c0.1,0,0.2,0.1,0.3,0.1c2.4,0.5,4,1.9,4.8,4.2C17,7.4,17,7.5,17,7.6c0,0,0.1-0.1,0.1-0.1 c0-0.1,0.1-0.2,0.1-0.4c0.7-2,2-3.3,4-3.9c0.3-0.1,0.7-0.2,1.1-0.3c0.4,0,0.8,0,1.2,0c0.1,0,0.1,0.1,0.2,0.1 c3.9,0.6,5.9,4.6,4.7,7.7c-0.3,0.7-0.4,1.5-0.6,2.2c0.2,0.1,0.3,0.1,0.4,0.1c1.2,0.4,2.1,1.1,2.7,2.2c0.2,0.3,0.3,0.4,0.7,0.4 c1.8-0.1,3.3,0.7,4.3,2.2c0.4,0.7,0.6,1.4,0.9,2.2c0,0.5,0,0.9,0,1.4c-0.4,1.5-0.8,3.1-1.3,4.6c-0.4,1.4-1.1,2.5-2.5,3.2 c-0.1,0.1-0.2,0.2-0.3,0.4c-1.5,4.6-4.7,7.5-9.3,8.8c-0.8,0.2-1.7,0.3-2.6,0.5c-0.7,0-1.4,0-2,0c-0.9-0.2-1.8-0.3-2.7-0.5 c-5.2-1.3-9-5.5-9.5-10.9c-0.2-1.8-0.1-3.7-0.1-5.5c0-1.5,0.4-2.7,1.3-3.9c0.1-0.1,0.2-0.4,0.1-0.5C7,15,6.2,12.3,5.4,9.6 c0-0.4,0-0.8,0-1.3c0-0.2,0.1-0.3,0.1-0.5c0.4-2,1.5-3.5,3.5-4.3C9.5,3.3,10.1,3.2,10.6,3z M19.8,26c0.8,1.1,0.8,2.3,0.8,3.5 c0,0.6-0.4,1-1,1c-0.5,0-0.9-0.4-0.9-1c0-0.4,0-0.8,0-1.3c-0.1-1.4-1.1-2.3-2.5-2.3c-0.2,0-0.5,0-0.7,0c-0.5-0.1-0.8-0.4-0.8-0.9 c0-0.4,0.3-0.8,0.7-1c0.2,0,0.3,0,0.5,0c1.6,0,3.2,0,4.8,0c1.1,0,1.9-0.6,2.1-1.6c0.3-1.5-0.6-2.5-2.1-2.5c-2.9,0-5.7,0-8.6,0 c-1.4,0-2.1,0.7-2.1,2.1c0,1.4,0,2.8,0,4.2c0,2.9,1.2,5.3,3.5,7c3.1,2.4,8.1,2.6,11.5,0.5c2.1-1.3,3.4-3,4-5.4c0-0.1,0-0.4-0.1-0.5 c-0.5-0.3-0.9-0.6-1.4-0.9c-0.1,0.1-0.2,0.2-0.3,0.3c-1.8,1.8-4.8,1.4-6-0.9c-0.3-0.5-0.5-0.6-1-0.6C20.2,26,20.1,26,19.8,26z M22.3,18.2c0,0,0,0.1,0,0.1C22.3,18.3,22.4,18.2,22.3,18.2c0.9-2.9,1.8-5.8,2.6-8.8c0.3-1.2-0.5-2.3-1.7-2.6 c-1.1-0.2-2.1,0.5-2.4,1.6c-0.4,1.2-0.7,2.4-1.1,3.7c-0.4,1.2-0.7,2.4-1.1,3.6c-0.3,1.1-1.4,1.5-2.3,1.1c-0.5-0.3-0.7-0.7-0.9-1.2 c-0.7-2.4-1.4-4.7-2.1-7.1c-0.4-1.3-1.5-2-2.7-1.6C9.5,7.2,8.9,8.3,9.3,9.6c0.8,2.7,1.5,5.3,2.3,8c0.1,0.4,0.3,0.5,0.6,0.5 c2.3,0,4.7,0,7,0C20.3,18.1,21.3,18.1,22.3,18.2z M22.8,25.4c0,0.1,0,0.2,0.1,0.2c0.4,0.7,1,1.1,1.8,1c0.9-0.1,1.5-0.6,1.7-1.5 c0.6-2.1,1.2-4.2,1.8-6.3c0.3-1.1-0.2-2.1-1.2-2.4c-1-0.3-2.1,0.2-2.4,1.3c-0.2,0.5-0.3,1-0.5,1.6c0,0.2,0,0.5,0.1,0.7 c0.6,1,0.6,2,0.3,3.1C24.3,24,23.7,24.8,22.8,25.4z M33.1,21.4c0-1-0.6-1.7-1.4-1.9c-0.8-0.1-1.7,0.3-1.9,1.2 c-0.4,1.2-0.7,2.4-1,3.6c-0.2,0.7,0.2,1.5,0.9,1.8c0.7,0.4,1.4,0.3,1.9-0.2c0.3-0.3,0.5-0.7,0.6-1.1c0.3-0.9,0.5-1.7,0.8-2.6 C33,21.8,33.1,21.5,33.1,21.4z"/></symbol>
		<symbol id="whatsapp" viewBox="0 0 40 40"><path d="M24.9,21.9c0.2,0,0.9,0.3,2.1,1c1.2,0.6,1.9,1,1.9,1.1c0,0.1,0,0.2,0,0.3c0,0.5-0.1,1-0.4,1.6c-0.2,0.6-0.7,1-1.5,1.4 s-1.5,0.6-2.2,0.6c-0.8,0-2.2-0.4-4.1-1.3c-1.4-0.7-2.6-1.5-3.7-2.6c-1-1.1-2.1-2.4-3.2-4c-1-1.5-1.6-3-1.5-4.2v-0.2 c0-1.3,0.6-2.5,1.6-3.4c0.3-0.3,0.7-0.5,1.1-0.5c0.1,0,0.2,0,0.4,0c0.2,0,0.3,0,0.4,0c0.3,0,0.5,0,0.6,0.1c0.1,0.1,0.2,0.3,0.3,0.6 c0.1,0.3,0.4,0.9,0.7,1.9S18,16,18,16.1c0,0.3-0.2,0.7-0.7,1.2c-0.5,0.5-0.7,0.9-0.7,1c0,0.1,0,0.2,0.1,0.3c0.5,1.1,1.2,2,2.2,3 c0.8,0.8,1.9,1.5,3.3,2.2c0.2,0.1,0.3,0.2,0.5,0.2c0.2,0,0.6-0.4,1.2-1.1S24.7,21.9,24.9,21.9L24.9,21.9z M20.5,33.4 c1.8,0,3.6-0.4,5.3-1.1c1.7-0.7,3.1-1.7,4.4-2.9c1.2-1.2,2.2-2.7,2.9-4.4c0.7-1.7,1.1-3.4,1.1-5.3c0-1.8-0.4-3.6-1.1-5.3 c-0.7-1.7-1.7-3.1-2.9-4.4s-2.7-2.2-4.4-2.9s-3.4-1.1-5.3-1.1c-1.8,0-3.6,0.4-5.3,1.1s-3.1,1.7-4.4,2.9c-1.2,1.2-2.2,2.7-2.9,4.4 c-0.7,1.7-1.1,3.4-1.1,5.3c0,2.9,0.9,5.6,2.6,8l-1.7,5.1l5.3-1.7C15.3,32.6,17.8,33.4,20.5,33.4z M20.5,3.4c2.2,0,4.3,0.4,6.3,1.3 s3.8,2,5.2,3.5c1.5,1.5,2.6,3.2,3.5,5.2c0.9,2,1.3,4.1,1.3,6.3c0,2.2-0.4,4.3-1.3,6.3s-2,3.8-3.5,5.2c-1.5,1.5-3.2,2.6-5.2,3.5 s-4.1,1.3-6.3,1.3c-2.8,0-5.5-0.7-7.9-2L3.5,37l3-8.8c-1.6-2.6-2.3-5.4-2.3-8.4c0-2.2,0.4-4.3,1.3-6.3s2-3.8,3.5-5.2 s3.2-2.6,5.2-3.5S18.2,3.4,20.5,3.4z"/></symbol>
</svg>
